<svg class="lds-spinner" width="145px"  height="145px"  xmlns="http://www.w3.org/2000/svg" xmlns:xlink="http://www.w3.org/1999/xlink" viewBox="0 0 100 100" preserveAspectRatio="xMidYMid" style="background: none;"><g transform="rotate(0 50 50)">
  <rect x="48" y="23.5" rx="12" ry="5.875" width="4" height="13" fill="#88d68f">
    <animate attributeName="opacity" values="1;0" keyTimes="0;1" dur="1.3s" begin="-1.2277777777777779s" repeatCount="indefinite"></animate>
  </rect>
</g><g transform="rotate(20 50 50)">
  <rect x="48" y="23.5" rx="12" ry="5.875" width="4" height="13" fill="#88d68f">
    <animate attributeName="opacity" values="1;0" keyTimes="0;1" dur="1.3s" begin="-1.1555555555555557s" repeatCount="indefinite"></animate>
  </rect>
</g><g transform="rotate(40 50 50)">
  <rect x="48" y="23.5" rx="12" ry="5.875" width="4" height="13" fill="#88d68f">
    <animate attributeName="opacity" values="1;0" keyTimes="0;1" dur="1.3s" begin="-1.0833333333333333s" repeatCount="indefinite"></animate>
  </rect>
</g><g transform="rotate(60 50 50)">
  <rect x="48" y="23.5" rx="12" ry="5.875" width="4" height="13" fill="#88d68f">
    <animate attributeName="opacity" values="1;0" keyTimes="0;1" dur="1.3s" begin="-1.011111111111111s" repeatCount="indefinite"></animate>
  </rect>
</g><g transform="rotate(80 50 50)">
  <rect x="48" y="23.5" rx="12" ry="5.875" width="4" height="13" fill="#88d68f">
    <animate attributeName="opacity" values="1;0" keyTimes="0;1" dur="1.3s" begin="-0.938888888888889s" repeatCount="indefinite"></animate>
  </rect>
</g><g transform="rotate(100 50 50)">
  <rect x="48" y="23.5" rx="12" ry="5.875" width="4" height="13" fill="#88d68f">
    <animate attributeName="opacity" values="1;0" keyTimes="0;1" dur="1.3s" begin="-0.8666666666666667s" repeatCount="indefinite"></animate>
  </rect>
</g><g transform="rotate(120 50 50)">
  <rect x="48" y="23.5" rx="12" ry="5.875" width="4" height="13" fill="#88d68f">
    <animate attributeName="opacity" values="1;0" keyTimes="0;1" dur="1.3s" begin="-0.7944444444444445s" repeatCount="indefinite"></animate>
  </rect>
</g><g transform="rotate(140 50 50)">
  <rect x="48" y="23.5" rx="12" ry="5.875" width="4" height="13" fill="#88d68f">
    <animate attributeName="opacity" values="1;0" keyTimes="0;1" dur="1.3s" begin="-0.7222222222222222s" repeatCount="indefinite"></animate>
  </rect>
</g><g transform="rotate(160 50 50)">
  <rect x="48" y="23.5" rx="12" ry="5.875" width="4" height="13" fill="#88d68f">
    <animate attributeName="opacity" values="1;0" keyTimes="0;1" dur="1.3s" begin="-0.65s" repeatCount="indefinite"></animate>
  </rect>
</g><g transform="rotate(180 50 50)">
  <rect x="48" y="23.5" rx="12" ry="5.875" width="4" height="13" fill="#88d68f">
    <animate attributeName="opacity" values="1;0" keyTimes="0;1" dur="1.3s" begin="-0.5777777777777778s" repeatCount="indefinite"></animate>
  </rect>
</g><g transform="rotate(200 50 50)">
  <rect x="48" y="23.5" rx="12" ry="5.875" width="4" height="13" fill="#88d68f">
    <animate attributeName="opacity" values="1;0" keyTimes="0;1" dur="1.3s" begin="-0.5055555555555555s" repeatCount="indefinite"></animate>
  </rect>
</g><g transform="rotate(220 50 50)">
  <rect x="48" y="23.5" rx="12" ry="5.875" width="4" height="13" fill="#88d68f">
    <animate attributeName="opacity" values="1;0" keyTimes="0;1" dur="1.3s" begin="-0.43333333333333335s" repeatCount="indefinite"></animate>
  </rect>
</g><g transform="rotate(240 50 50)">
  <rect x="48" y="23.5" rx="12" ry="5.875" width="4" height="13" fill="#88d68f">
    <animate attributeName="opacity" values="1;0" keyTimes="0;1" dur="1.3s" begin="-0.3611111111111111s" repeatCount="indefinite"></animate>
  </rect>
</g><g transform="rotate(260 50 50)">
  <rect x="48" y="23.5" rx="12" ry="5.875" width="4" height="13" fill="#88d68f">
    <animate attributeName="opacity" values="1;0" keyTimes="0;1" dur="1.3s" begin="-0.2888888888888889s" repeatCount="indefinite"></animate>
  </rect>
</g><g transform="rotate(280 50 50)">
  <rect x="48" y="23.5" rx="12" ry="5.875" width="4" height="13" fill="#88d68f">
    <animate attributeName="opacity" values="1;0" keyTimes="0;1" dur="1.3s" begin="-0.21666666666666667s" repeatCount="indefinite"></animate>
  </rect>
</g><g transform="rotate(300 50 50)">
  <rect x="48" y="23.5" rx="12" ry="5.875" width="4" height="13" fill="#88d68f">
    <animate attributeName="opacity" values="1;0" keyTimes="0;1" dur="1.3s" begin="-0.14444444444444446s" repeatCount="indefinite"></animate>
  </rect>
</g><g transform="rotate(320 50 50)">
  <rect x="48" y="23.5" rx="12" ry="5.875" width="4" height="13" fill="#88d68f">
    <animate attributeName="opacity" values="1;0" keyTimes="0;1" dur="1.3s" begin="-0.07222222222222223s" repeatCount="indefinite"></animate>
  </rect>
</g><g transform="rotate(340 50 50)">
  <rect x="48" y="23.5" rx="12" ry="5.875" width="4" height="13" fill="#88d68f">
    <animate attributeName="opacity" values="1;0" keyTimes="0;1" dur="1.3s" begin="0s" repeatCount="indefinite"></animate>
  </rect>
</g></svg>