<?xml version="1.0" encoding="UTF-8"?>
<svg width="16px" height="16px" viewBox="0 0 16 16" version="1.1" xmlns="http://www.w3.org/2000/svg" xmlns:xlink="http://www.w3.org/1999/xlink">
    <!-- Generator: Sketch 51.3 (57544) - http://www.bohemiancoding.com/sketch -->
    <title>Mission icon</title>
    <desc>Created with Sketch.</desc>
    <defs>
        <polygon id="path-1" points="0 0 16 0 16 16 0 16"></polygon>
    </defs>
    <g id="Symbols" stroke="none" stroke-width="1" fill="none" fill-rule="evenodd">
        <g id="Header-Logged-In" transform="translate(-7.000000, -13.000000)">
            <g id="Mission-icon" transform="translate(7.000000, 13.000000)">
                <g id="Group-2">
                    <g id="Group-5">
                        <mask id="mask-2" fill="white">
                            <use xlink:href="#path-1"></use>
                        </mask>
                        <g id="Clip-4"></g>
                        <path d="M8.2962963,13.6148148 L8.2962963,12.4444444 L7.7037037,12.4444444 L7.7037037,13.6148148 C4.832,13.4648889 2.53511111,11.1685926 2.38518519,8.2962963 L3.55555556,8.2962963 L3.55555556,7.7037037 L2.38518519,7.7037037 C2.53511111,4.832 4.832,2.5357037 7.7037037,2.38577778 L7.7037037,3.55555556 L8.2962963,3.55555556 L8.2962963,2.38577778 C11.168,2.5357037 13.4648889,4.832 13.6148148,7.7037037 L12.4444444,7.7037037 L12.4444444,8.2962963 L13.6148148,8.2962963 C13.4648889,11.1685926 11.168,13.4648889 8.2962963,13.6148148 Z M14.8,7.7037037 C14.6482963,4.17777778 11.8222222,1.3522963 8.2962963,1.20059259 L8.2962963,0 L7.7037037,0 L7.7037037,1.20059259 C4.17777778,1.3522963 1.3522963,4.17777778 1.2,7.7037037 L0,7.7037037 L0,8.2962963 L1.2,8.2962963 C1.3522963,11.8228148 4.17777778,14.6482963 7.7037037,14.8 L7.7037037,16 L8.2962963,16 L8.2962963,14.8 C11.8222222,14.6482963 14.6482963,11.8228148 14.8,8.2962963 L16,8.2962963 L16,7.7037037 L14.8,7.7037037 Z" id="Fill-3" fill="#020303" mask="url(#mask-2)"></path>
                    </g>
                    <path d="M8,7.2 C7.55786667,7.2 7.2,7.5584 7.2,8 C7.2,8.4416 7.55786667,8.8 8,8.8 C8.44213333,8.8 8.8,8.4416 8.8,8 C8.8,7.5584 8.44213333,7.2 8,7.2" id="Fill-1" fill="#020303"></path>
                </g>
            </g>
        </g>
    </g>
</svg>